<?xml version="1.0" standalone="no"?>
<!DOCTYPE svg PUBLIC "-//W3C//DTD SVG 20010904//EN"
 "http://www.w3.org/TR/2001/REC-SVG-20010904/DTD/svg10.dtd">
<svg version="1.0" xmlns="http://www.w3.org/2000/svg"
 width="520.000000pt" height="520.000000pt" viewBox="0 0 520.000000 520.000000"
 preserveAspectRatio="xMidYMid meet">
<metadata>
Created by potrace 1.11, written by Peter Selinger 2001-2013
</metadata>
<g transform="translate(0.000000,520.000000) scale(0.100000,-0.100000)"
fill="#000000" stroke="none">
<path d="M2781 4604 c-168 -28 -303 -91 -461 -214 -130 -102 -255 -262 -291
-371 -28 -88 -66 -253 -74 -319 -7 -65 -7 -222 0 -265 33 -181 100 -321 210
-440 26 -27 69 -83 96 -122 51 -75 84 -105 122 -109 12 -1 25 -3 28 -3 11 -2
-1 -233 -16 -311 -27 -145 -61 -218 -113 -243 -82 -41 -387 -237 -552 -356
-215 -153 -392 -310 -480 -427 -46 -60 -113 -205 -163 -354 -27 -78 -86 -303
-94 -355 -3 -16 -8 -50 -13 -75 -5 -25 -5 -47 0 -50 4 -3 734 -5 1622 -5
l1613 0 5 40 c3 22 5 92 4 155 -3 277 -41 484 -117 640 -33 68 -120 165 -172
191 -30 16 -352 191 -390 213 -85 49 -134 90 -182 153 -20 26 -24 41 -21 80
l3 48 86 -2 c123 -3 191 22 229 82 39 63 169 539 206 755 5 27 11 61 20 100 3
14 5 66 5 115 0 51 8 122 18 165 15 63 18 115 16 325 -2 261 5 322 45 412 18
41 18 43 1 33 -15 -7 -12 4 15 58 18 37 36 85 40 107 l7 40 -24 -27 c-75 -81
-238 -46 -427 93 -273 201 -551 285 -801 243z"/>
</g>
</svg>
